<svg xmlns="http://www.w3.org/2000/svg" width="55" height="55" fill="none" viewBox="0 0 55 55">
  <path fill="url(#a)" d="M54.338 22.031c.72 4.121-3.699 3.024-3.699 3.024-1.85-5.162-4.809-4.68-4.809-4.68 2.317 1.675 2.492 3.1 2.492 3.1-6.171-4.333-14.562-.847-17.755.79-1.791-2.503-5.413-8.108-4.128-10.65 1.694-3.331 5.14-1.425 5.14-1.425 6.97-.115 6.58-2.58 6.58-2.58-1.849 1.425-7.3 0-7.3 0 4.73 0 6.736-1.907 6.736-1.907-3.524.867-7.457-2.85-7.457-2.85C28.698-2.445 22.04.655 22.04.655c4.167-.712 3.057 3.659 3.057 3.659-5.218 1.83-4.731 4.757-4.731 4.757C22.06 6.779 23.5 6.606 23.5 6.606c-4.77 6.644-.175 15.887 1.188 18.295-2.492 1.713-8.333 5.488-10.961 4.178-3.368-1.675-1.44-5.084-1.44-5.084-.079-6.894-2.57-6.509-2.57-6.509 1.44 1.83 0 7.222 0 7.222 0-4.68-1.928-6.663-1.928-6.663.876 3.485-2.882 7.375-2.882 7.375-7.378 1.425-4.244 8.012-4.244 8.012-.72-4.122 3.7-3.024 3.7-3.024 1.849 5.161 4.808 4.68 4.808 4.68-2.317-1.676-2.492-3.1-2.492-3.1 6.522 4.583 15.536.423 18.262-1.04 1.83 2.6 5.237 7.953 3.972 10.437-1.694 3.332-5.14 1.425-5.14 1.425-6.97.077-6.58 2.542-6.58 2.542 1.849-1.425 7.3 0 7.3 0-4.73 0-6.736 1.907-6.736 1.907 3.524-.867 7.457 2.85 7.457 2.85 1.44 7.298 8.099 4.198 8.099 4.198-4.167.712-3.057-3.659-3.057-3.659 5.218-1.83 4.731-4.757 4.731-4.757-1.694 2.292-3.134 2.465-3.134 2.465 4.672-6.49.37-15.483-1.09-18.121 2.647-1.83 8.001-5.103 10.474-3.87 3.368 1.675 1.44 5.083 1.44 5.083.078 6.894 2.57 6.51 2.57 6.51-1.44-1.83 0-7.222 0-7.222 0 4.68 1.928 6.663 1.928 6.663-.876-3.486 2.881-7.376 2.881-7.376 7.418-1.406 4.283-7.992 4.283-7.992Z"/>
  <defs>
    <linearGradient id="a" x1="27.498" x2="27.498" y1=".001" y2="54.961" gradientUnits="userSpaceOnUse">
      <stop stop-color="#C0B7E8"/>
      <stop offset="1" stop-color="#8176AF"/>
    </linearGradient>
  </defs>
</svg>
